<?xml version="1.0" encoding="UTF-8" standalone="no"?>
<svg
   xmlns:dc="http://purl.org/dc/elements/1.1/"
   xmlns:cc="http://creativecommons.org/ns#"
   xmlns:rdf="http://www.w3.org/1999/02/22-rdf-syntax-ns#"
   xmlns:svg="http://www.w3.org/2000/svg"
   xmlns="http://www.w3.org/2000/svg"
   xmlns:sodipodi="http://sodipodi.sourceforge.net/DTD/sodipodi-0.dtd"
   xmlns:inkscape="http://www.inkscape.org/namespaces/inkscape"
   version="1.1"
   x="0px"
   y="0px"
   viewBox="0 0 48.894531 25.503328"
   xml:space="preserve"
   id="svg885"
   sodipodi:docname="helm-status-icon.svg"
   width="48.894531"
   height="25.503328"
   inkscape:export-filename="/home/ncbradley/do/helm/static/status.png"
   inkscape:export-xdpi="67.755859"
   inkscape:export-ydpi="67.755859"
   inkscape:version="0.92.4 5da689c313, 2019-01-14"><metadata
     id="metadata891"><rdf:RDF><cc:Work
         rdf:about=""><dc:format>image/svg+xml</dc:format><dc:type
           rdf:resource="http://purl.org/dc/dcmitype/StillImage" /><dc:title>A</dc:title></cc:Work></rdf:RDF></metadata><defs
     id="defs889" /><sodipodi:namedview
     pagecolor="#ffffff"
     bordercolor="#666666"
     borderopacity="1"
     objecttolerance="10"
     gridtolerance="10"
     guidetolerance="10"
     inkscape:pageopacity="0"
     inkscape:pageshadow="2"
     inkscape:window-width="1920"
     inkscape:window-height="1136"
     id="namedview887"
     showgrid="false"
     fit-margin-top="2"
     fit-margin-left="2"
     fit-margin-right="2"
     fit-margin-bottom="2"
     inkscape:zoom="7.56"
     inkscape:cx="47.132616"
     inkscape:cy="2.103516"
     inkscape:window-x="0"
     inkscape:window-y="27"
     inkscape:window-maximized="1"
     inkscape:current-layer="svg885" /><title
     id="title873">A</title><desc
     id="desc875">Created with Sketch.</desc><path
     d="M 5.6035156,2 C 3.6199658,2 2,3.6199658 2,5.6035156 V 19.899812 c 0,1.98355 1.6199658,3.603516 3.6035156,3.603516 H 43.291016 c 1.98355,0 3.603516,-1.619966 3.603516,-3.603516 V 5.6035156 C 46.894532,3.6199658 45.274566,2 43.291016,2 Z m 0,1.2070312 H 43.291016 c 1.31645,0 2.396484,1.0800342 2.396484,2.3964844 V 19.899812 c 0,1.31645 -1.080034,2.396484 -2.396484,2.396484 H 5.6035156 c -1.3164502,0 -2.3964844,-1.080034 -2.3964844,-2.396484 V 5.6035156 c 0,-1.3164502 1.0800342,-2.3964844 2.3964844,-2.3964844 z"
     id="path877"
     inkscape:connector-curvature="0"
     sodipodi:nodetypes="ssssssssssssssssss" /><path
     sodipodi:type="inkscape:offset"
     inkscape:radius="-0.36296263"
     inkscape:original="M 13.5 7.5 C 9.9 7.5 7 10.4 7 14 C 7 17.6 9.9 20.5 13.5 20.5 C 14.9 20.5 16.300781 19.999219 17.300781 19.199219 L 21.300781 23.199219 C 21.700781 23.599219 22.299219 23.599219 22.699219 23.199219 C 23.099219 22.799219 23.099219 22.200781 22.699219 21.800781 L 18.699219 17.800781 C 19.499219 16.700781 20 15.4 20 14 C 20 10.4 17.1 7.5 13.5 7.5 z M 13.5 9.5 C 16 9.5 18 11.5 18 14 C 18 16.5 16 18.5 13.5 18.5 C 11 18.5 9 16.5 9 14 C 9 11.5 11 9.5 13.5 9.5 z "
     id="path879"
     d="m 13.5,7.8632812 c -3.405076,0 -6.1367188,2.7316428 -6.1367188,6.1367188 0,3.405076 2.7316428,6.136719 6.1367188,6.136719 1.313445,0 2.645633,-0.477835 3.574219,-1.220703 a 0.36299893,0.36299893 0 0 1 0.482422,0.02734 l 4,4 c 0.272007,0.272008 0.614711,0.272008 0.886718,0 0.272008,-0.272007 0.272008,-0.614711 0,-0.886718 l -4,-4 a 0.36299893,0.36299893 0 0 1 -0.03711,-0.46875 C 19.168572,16.539698 19.636719,15.313445 19.636719,14 19.636719,10.594924 16.905076,7.8632812 13.5,7.8632812 Z m 0,1.2734376 c 2.69358,0 4.863281,2.1697012 4.863281,4.8632812 0,2.69358 -2.169701,4.863281 -4.863281,4.863281 -2.69358,0 -4.8632812,-2.169701 -4.8632812,-4.863281 0,-2.69358 2.1697012,-4.8632812 4.8632812,-4.8632812 z"
     transform="translate(-1.0578601,-2.7774368)" /></svg>