<?xml version="1.0" encoding="UTF-8" standalone="no"?>
<svg
   xmlns:dc="http://purl.org/dc/elements/1.1/"
   xmlns:cc="http://creativecommons.org/ns#"
   xmlns:rdf="http://www.w3.org/1999/02/22-rdf-syntax-ns#"
   xmlns:svg="http://www.w3.org/2000/svg"
   xmlns="http://www.w3.org/2000/svg"
   xmlns:sodipodi="http://sodipodi.sourceforge.net/DTD/sodipodi-0.dtd"
   xmlns:inkscape="http://www.inkscape.org/namespaces/inkscape"
   xml:space="preserve"
   version="1.1"
   style="clip-rule:evenodd;fill-rule:evenodd;image-rendering:optimizeQuality;shape-rendering:geometricPrecision;text-rendering:geometricPrecision"
   viewBox="0 0 50212.695 50212.695"
   x="0px"
   y="0px"
   id="svg989"
   sodipodi:docname="helm-icon.svg"
   width="50212.695"
   height="50212.695"
   inkscape:export-filename="/home/ncbradley/helm3.png"
   inkscape:export-xdpi="1.9577519"
   inkscape:export-ydpi="1.9577519"
   inkscape:version="0.92.4 5da689c313, 2019-01-14"><metadata
     id="metadata993"><rdf:RDF><cc:Work
         rdf:about=""><dc:format>image/svg+xml</dc:format><dc:type
           rdf:resource="http://purl.org/dc/dcmitype/StillImage" /><dc:title></dc:title></cc:Work></rdf:RDF></metadata><sodipodi:namedview
     pagecolor="#ffffff"
     bordercolor="#666666"
     borderopacity="1"
     objecttolerance="10"
     gridtolerance="10"
     guidetolerance="10"
     inkscape:pageopacity="0"
     inkscape:pageshadow="2"
     inkscape:window-width="1920"
     inkscape:window-height="1136"
     id="namedview991"
     showgrid="false"
     showguides="true"
     inkscape:guide-bbox="true"
     inkscape:zoom="0.014358729"
     inkscape:cx="26086.919"
     inkscape:cy="18953.343"
     inkscape:window-x="0"
     inkscape:window-y="27"
     inkscape:window-maximized="1"
     inkscape:current-layer="layer1"
     inkscape:pagecheckerboard="true"
     fit-margin-top="0"
     fit-margin-left="0"
     fit-margin-right="0"
     fit-margin-bottom="0" /><defs
     id="defs979"><style
       type="text/css"
       id="style977">
   
    .str0 {stroke:black;stroke-width:20;stroke-linejoin:round}
    .fil0 {fill:black}
   
  </style><filter
       style="color-interpolation-filters:sRGB;"
       inkscape:label="Drop Shadow"
       id="filter1884"><feFlood
         flood-opacity="0.498039"
         flood-color="rgb(0,0,0)"
         result="flood"
         id="feFlood1874" /><feComposite
         in="flood"
         in2="SourceGraphic"
         operator="out"
         result="composite1"
         id="feComposite1876" /><feGaussianBlur
         in="composite1"
         stdDeviation="140.6"
         result="blur"
         id="feGaussianBlur1878" /><feOffset
         dx="6"
         dy="6"
         result="offset"
         id="feOffset1880" /><feComposite
         in="offset"
         in2="SourceGraphic"
         operator="atop"
         result="fbSourceGraphic"
         id="feComposite1882" /><feColorMatrix
         result="fbSourceGraphicAlpha"
         in="fbSourceGraphic"
         values="0 0 0 -1 0 0 0 0 -1 0 0 0 0 -1 0 0 0 0 1 0"
         id="feColorMatrix1886" /><feFlood
         id="feFlood1888"
         flood-opacity="0.498039"
         flood-color="rgb(0,0,0)"
         result="flood"
         in="fbSourceGraphic" /><feComposite
         in2="fbSourceGraphic"
         id="feComposite1890"
         in="flood"
         operator="out"
         result="composite1" /><feGaussianBlur
         id="feGaussianBlur1892"
         in="composite1"
         stdDeviation="140.6"
         result="blur" /><feOffset
         id="feOffset1894"
         dx="6"
         dy="6"
         result="offset" /><feComposite
         in2="fbSourceGraphic"
         id="feComposite1896"
         in="offset"
         operator="atop"
         result="fbSourceGraphic" /><feColorMatrix
         result="fbSourceGraphicAlpha"
         in="fbSourceGraphic"
         values="0 0 0 -1 0 0 0 0 -1 0 0 0 0 -1 0 0 0 0 1 0"
         id="feColorMatrix2225" /><feFlood
         id="feFlood2227"
         flood-opacity="0.498039"
         flood-color="rgb(0,0,0)"
         result="flood"
         in="fbSourceGraphic" /><feComposite
         in2="fbSourceGraphic"
         id="feComposite2229"
         in="flood"
         operator="in"
         result="composite1" /><feGaussianBlur
         id="feGaussianBlur2231"
         in="composite1"
         stdDeviation="196.5"
         result="blur" /><feOffset
         id="feOffset2233"
         dx="17.8"
         dy="17.8"
         result="offset" /><feComposite
         in2="offset"
         id="feComposite2235"
         in="fbSourceGraphic"
         operator="over"
         result="fbSourceGraphic" /><feColorMatrix
         result="fbSourceGraphicAlpha"
         in="fbSourceGraphic"
         values="0 0 0 -1 0 0 0 0 -1 0 0 0 0 -1 0 0 0 0 1 0"
         id="feColorMatrix2237" /><feFlood
         id="feFlood2239"
         flood-opacity="0.498039"
         flood-color="rgb(0,0,0)"
         result="flood"
         in="fbSourceGraphic" /><feComposite
         in2="fbSourceGraphic"
         id="feComposite2241"
         in="flood"
         operator="in"
         result="composite1" /><feGaussianBlur
         id="feGaussianBlur2243"
         in="composite1"
         stdDeviation="196.5"
         result="blur" /><feOffset
         id="feOffset2245"
         dx="17.8"
         dy="17.8"
         result="offset" /><feComposite
         in2="offset"
         id="feComposite2247"
         in="fbSourceGraphic"
         operator="over"
         result="composite2" /></filter><clipPath
       clipPathUnits="userSpaceOnUse"
       id="clipPath2287"><g
         id="use2289"
         inkscape:label="Clip"><rect
           style="opacity:0.97000002;fill:#ffffff;fill-opacity:1;stroke:none;stroke-width:0.12027638;stroke-linecap:round;stroke-miterlimit:4;stroke-dasharray:none;stroke-opacity:0"
           id="rect2299"
           width="42103.195"
           height="44030.441"
           x="3438.0559"
           y="3710.4619" /></g></clipPath></defs><g
     inkscape:groupmode="layer"
     id="layer1"
     inkscape:label="Layer 1"
     style="display:inline"><ellipse
       style="opacity:0.97000002;fill:#ffffff;fill-opacity:1;stroke:none;stroke-width:0.1;stroke-linecap:round;stroke-miterlimit:4;stroke-dasharray:none;stroke-opacity:0"
       id="path2297"
       cx="23713.797"
       cy="24409.576"
       rx="20301.238"
       ry="19465.51" /></g><text
     x="-4863.3496"
     y="55305.711"
     font-size="5px"
     font-weight="bold"
     id="text985"
     style="font-weight:bold;font-size:5px;font-family:'Helvetica Neue', Helvetica, Arial-Unicode, Arial, Sans-serif;fill:#000000">Created by Olena Panasovska</text>
<text
     x="-4863.3496"
     y="55310.711"
     font-size="5px"
     font-weight="bold"
     id="text987"
     style="font-weight:bold;font-size:5px;font-family:'Helvetica Neue', Helvetica, Arial-Unicode, Arial, Sans-serif;fill:#000000">from the Noun Project</text>
<g
     inkscape:groupmode="layer"
     id="layer2"
     inkscape:label="Layer 2"
     style="display:inline"><g
       style="clip-rule:evenodd;fill-rule:evenodd;image-rendering:optimizeQuality;shape-rendering:geometricPrecision;text-rendering:geometricPrecision"
       id="g983"
       transform="translate(-4863.3496,-4709.2885)"><path
         class="fil0 str0"
         d="m 30527,5466 7640,2781 7512,2734 970,791 4023,6968 3954,6849 260,1401 -1380,7825 -1384,7847 -696,1186 -6082,5103 -6033,5063 -1437,520 h -7869 -8330 l -621,-223 -6388,-5360 -6279,-5269 -479,-905 -1404,-7963 -1391,-7887 164,-1154 4061,-7034 3989,-6909 1061,-871 7455,-2713 7549,-2748 1135,-33 z m 2085,26690 -361,361 602,602 -5,91 c -8,153 30,327 110,504 81,178 205,357 368,520 163,163 342,287 520,368 177,81 351,119 504,110 l 91,-5 609,609 361,-361 -609,-609 5,-91 c 8,-153 -30,-327 -110,-504 -81,-178 -205,-357 -368,-520 -163,-163 -342,-287 -520,-368 -177,-81 -351,-119 -504,-110 l -91,5 z m 114,-463 652,652 c 191,5 397,56 600,148 222,101 443,252 639,449 197,197 348,417 449,639 93,203 143,409 148,600 l 522,522 c 961,-1147 1584,-2586 1717,-4164 h -727 c -139,132 -320,242 -529,320 -229,86 -492,135 -770,135 -278,0 -541,-49 -770,-135 -209,-78 -390,-188 -529,-320 h -931 c -83,419 -246,810 -473,1154 z m 2072,3947 -521,-521 c -191,-5 -397,-56 -600,-148 -222,-101 -443,-252 -639,-449 -197,-197 -348,-417 -449,-639 -93,-203 -143,-409 -148,-600 l -653,-653 c -335,220 -714,379 -1120,463 v 924 c 132,139 242,320 320,529 86,229 135,492 135,770 0,278 -49,541 -135,770 -78,209 -188,390 -320,529 v 737 c 1565,-138 2992,-757 4130,-1710 z m -4538,-2299 h -510 v 850 l -69,61 c -114,102 -210,252 -278,434 -68,183 -108,397 -108,628 0,231 39,445 108,628 68,182 164,332 278,434 l 69,61 v 861 h 510 v -861 l 69,-61 c 114,-102 210,-252 278,-434 68,-183 108,-397 108,-628 0,-231 -39,-445 -108,-628 -68,-182 -164,-332 -278,-434 l -69,-61 z m -918,4009 v -737 c -132,-139 -241,-320 -320,-529 -86,-229 -135,-492 -135,-770 0,-278 49,-541 135,-770 78,-209 188,-390 320,-529 v -924 c -412,-85 -796,-249 -1135,-474 l -630,630 c -5,191 -56,397 -148,600 -101,222 -252,443 -449,639 -197,197 -417,348 -639,449 -203,93 -409,143 -600,148 l -543,543 c 1141,959 2573,1584 4145,1722 z m -1576,-4868 -361,-361 -602,602 -91,-5 c -153,-8 -327,30 -504,110 -178,81 -357,205 -520,368 -163,163 -287,342 -368,520 -81,177 -119,351 -110,504 l 5,91 -609,609 361,361 609,-609 91,5 c 153,8 327,-30 504,-110 178,-81 357,-205 520,-368 163,-163 287,-342 368,-520 81,-177 119,-351 110,-504 l -5,-91 z m -505,-794 12,-12 c -222,-341 -381,-726 -463,-1138 h -906 c -139,132 -320,242 -529,320 -229,86 -492,135 -770,135 -278,0 -541,-49 -770,-135 -209,-78 -390,-188 -529,-320 h -752 c 132,1572 751,3006 1705,4150 l 541,-541 c 5,-191 56,-397 148,-600 101,-222 252,-443 449,-639 197,-197 417,-348 639,-449 203,-93 409,-143 600,-148 l 622,-622 z m -681,-1559 v -510 h -850 l -61,-69 c -102,-114 -252,-210 -434,-278 -183,-68 -397,-108 -628,-108 -231,0 -445,39 -628,108 -182,68 -332,164 -434,278 l -61,69 h -861 v 510 h 861 l 61,69 c 102,114 252,210 434,278 183,68 397,108 628,108 231,0 445,-39 628,-108 182,-68 332,-164 434,-278 l 61,-69 z m 204,-918 h 38 c 85,-395 243,-763 457,-1091 l -655,-655 c -191,-5 -397,-56 -600,-148 -222,-101 -443,-252 -639,-449 -197,-197 -348,-417 -449,-639 -93,-203 -143,-409 -148,-600 l -519,-519 c -947,1132 -1565,2548 -1707,4102 h 747 c 139,-132 320,-241 529,-320 229,-86 492,-135 770,-135 278,0 541,49 770,135 209,78 390,188 529,320 h 880 z m -1824,-4709 -361,361 602,602 -5,91 c -8,153 30,327 110,504 81,178 205,357 368,520 163,163 342,287 520,368 177,81 351,119 504,110 l 91,-5 609,609 361,-361 -609,-609 5,-91 c 8,-153 -30,-327 -110,-504 -81,-178 -205,-357 -368,-520 -163,-163 -342,-287 -520,-368 -177,-81 -351,-119 -504,-110 l -91,5 z m 246,-331 520,520 c 191,5 397,56 600,148 222,101 443,252 639,449 197,197 348,417 449,639 93,203 143,409 148,600 l 654,654 c 337,-222 717,-383 1126,-467 v -924 c -132,-139 -241,-320 -320,-529 -86,-229 -135,-492 -135,-770 0,-278 49,-541 135,-770 78,-209 188,-390 320,-529 v -737 c -1567,138 -2996,759 -4136,1715 z m 5054,-1653 h -510 v 850 l -69,61 c -114,102 -210,252 -278,434 -68,183 -108,397 -108,628 0,231 39,445 108,628 68,182 164,332 278,434 l 69,61 v 861 h 510 v -861 l 69,-61 c 114,-102 210,-252 278,-434 68,-183 108,-397 108,-628 0,-231 -39,-445 -108,-628 -68,-182 -164,-332 -278,-434 l -69,-61 z m 408,-61 v 737 c 132,139 241,320 320,529 86,229 135,492 135,770 0,278 -49,541 -135,770 -78,209 -188,390 -320,529 v 924 c 402,83 777,240 1110,457 l 677,-677 c 5,-191 56,-397 148,-600 101,-222 252,-443 449,-639 197,-197 417,-348 639,-449 203,-93 409,-143 600,-148 l 498,-498 c -1137,-948 -2560,-1565 -4121,-1703 z m 4750,2372 -361,-361 -602,602 -91,-5 c -153,-8 -327,30 -504,110 -178,81 -357,205 -520,368 -163,163 -287,342 -368,520 -81,177 -119,351 -110,504 l 5,91 -609,609 361,361 609,-609 91,5 c 153,8 327,-30 504,-110 178,-81 357,-205 520,-368 163,-163 287,-342 368,-520 81,-177 119,-351 110,-504 l -5,-91 z m -2654,3231 -44,44 c 220,331 381,705 468,1107 h 943 c 139,-132 320,-241 529,-320 229,-86 492,-135 770,-135 278,0 541,49 770,135 209,78 390,188 529,320 h 722 c -143,-1560 -766,-2982 -1719,-4116 l -500,500 c -5,191 -56,397 -148,600 -101,222 -252,443 -449,639 -197,197 -417,348 -639,449 -203,93 -409,143 -600,148 l -629,629 z m 4638,2069 v -510 h -850 l -61,-69 c -102,-114 -252,-210 -434,-278 -183,-68 -397,-108 -628,-108 -231,0 -445,39 -628,108 -182,68 -332,164 -434,278 l -61,69 h -861 v 510 h 861 l 61,69 c 102,114 252,210 434,278 183,68 397,108 628,108 231,0 445,-39 628,-108 182,-68 332,-164 434,-278 l 61,-69 z m -5383,-2241 c -515,-515 -1228,-834 -2014,-834 -787,0 -1499,319 -2014,834 -515,515 -834,1228 -834,2014 0,787 319,1499 834,2014 515,515 1228,834 2014,834 787,0 1499,-319 2014,-834 515,-515 834,-1228 834,-2014 0,-787 -319,-1499 -834,-2014 z m -12602,-10569 3722,4297 c 1590,-1326 3567,-2202 5737,-2434 l -399,-5693 c -7,-106 24,-223 75,-330 53,-110 130,-215 208,-281 198,-169 403,-294 607,-378 224,-93 448,-137 661,-142 h 8 c 213,4 436,49 661,142 204,85 409,209 607,378 181,155 165,397 151,584 l -2,26 -398,5681 c 2235,211 4271,1104 5897,2470 l 3824,-4414 1,-1 c 10,-12 2,-2 16,-19 123,-142 282,-326 520,-308 259,20 492,77 697,161 225,93 415,219 569,366 l 6,6 c 148,153 274,343 368,567 85,204 143,436 163,696 19,237 -164,397 -306,520 l -20,17 -4415,3848 c 1313,1607 2172,3601 2377,5785 l 5681,-398 26,-2 c 187,-13 428,-30 584,151 169,198 294,403 378,607 93,224 137,448 142,661 v 8 c -4,213 -49,436 -142,661 -84,204 -209,409 -378,607 -155,181 -397,165 -584,151 l -26,-2 -5681,-398 c -207,2197 -1074,4203 -2402,5815 l 4339,3782 20,17 c 142,124 325,283 306,520 -20,260 -78,492 -163,696 -93,224 -220,414 -368,567 l -6,6 c -154,147 -344,273 -569,366 -205,85 -437,141 -697,161 -237,18 -396,-165 -520,-308 -14,-17 -6,-7 -16,-19 l -1,-1 -3764,-4344 c -1620,1347 -3642,2228 -5859,2437 l 400,5710 2,26 c 13,187 30,428 -151,584 -198,169 -403,294 -607,378 -224,93 -448,137 -661,142 h -8 c -213,-4 -436,-49 -661,-142 -204,-85 -409,-209 -607,-378 -181,-155 -165,-397 -151,-584 l 2,-26 400,-5710 c -2245,-211 -4289,-1111 -5919,-2487 l -3757,4337 -1,1 c -10,12 -2,2 -16,19 -123,142 -282,326 -520,308 -259,-20 -492,-77 -697,-161 -225,-93 -415,-219 -569,-366 l -6,-6 c -148,-153 -274,-343 -368,-567 -85,-204 -142,-436 -163,-696 -19,-237 164,-397 306,-520 l 20,-17 4344,-3785 c -1311,-1617 -2164,-3621 -2358,-5815 l -5729,402 -26,2 c -187,13 -429,30 -584,-151 -169,-198 -294,-403 -378,-607 -93,-224 -137,-448 -142,-661 v -8 c 4,-213 49,-436 142,-661 85,-204 209,-409 378,-607 155,-181 397,-165 584,-151 l 26,2 5740,403 c 215,-2168 1073,-4146 2381,-5743 l -4295,-3743 -20,-17 c -142,-124 -325,-283 -306,-520 20,-260 78,-492 163,-696 93,-224 220,-414 368,-567 l 6,-6 c 154,-147 344,-273 569,-366 205,-85 437,-141 697,-161 237,-18 396,165 520,308 14,17 6,7 16,19 l 1,1 z m 3666,5694 c 146,-146 337,-219 529,-219 191,0 383,73 529,219 146,146 219,337 219,529 0,191 -73,383 -219,529 -146,146 -337,219 -529,219 -191,0 -383,-73 -529,-219 -146,-146 -219,-337 -219,-529 0,-191 73,-383 219,-529 z m 288,288 c -66,66 -100,153 -100,240 0,87 33,174 100,240 66,66 153,100 240,100 87,0 174,-33 240,-100 66,-66 100,-153 100,-240 0,-87 -33,-174 -100,-240 -66,-66 -153,-100 -240,-100 -87,0 -174,33 -240,100 z m 6634,-1283 c 2177,0 4148,882 5574,2309 1427,1427 2309,3397 2309,5574 0,2177 -882,4148 -2309,5574 -1427,1427 -3397,2309 -5574,2309 -2177,0 -4148,-882 -5574,-2309 -1427,-1427 -2309,-3397 -2309,-5574 0,-2177 882,-4148 2309,-5574 1427,-1427 3397,-2309 5574,-2309 z m -9789,7917 c 0,-207 84,-393 219,-529 135,-135 322,-219 529,-219 207,0 393,84 529,219 135,135 219,322 219,529 0,207 -84,393 -219,529 -135,135 -322,219 -529,219 -207,0 -393,-84 -529,-219 -135,-135 -219,-322 -219,-529 z m 507,-240 c -62,62 -100,147 -100,240 0,94 38,179 100,240 62,62 147,100 240,100 94,0 179,-38 240,-100 62,-62 100,-147 100,-240 0,-94 -38,-179 -100,-240 -62,-62 -147,-100 -240,-100 -94,0 -179,38 -240,100 z m 2360,7162 c -146,-146 -219,-337 -219,-529 0,-191 73,-383 219,-529 146,-146 337,-219 529,-219 191,0 383,73 529,219 146,146 219,337 219,529 0,191 -73,383 -219,529 -146,146 -337,219 -529,219 -191,0 -383,-73 -529,-219 z m 288,-288 c 66,66 153,100 240,100 87,0 174,-33 240,-100 66,-66 100,-153 100,-240 0,-87 -33,-174 -100,-240 -66,-66 -153,-100 -240,-100 -87,0 -174,33 -240,100 -66,66 -100,153 -100,240 0,87 33,174 100,240 z m 6634,1660 c 207,0 393,84 529,219 135,135 219,322 219,529 0,206 -84,393 -219,529 -135,135 -322,219 -529,219 -207,0 -393,-84 -529,-219 -135,-135 -219,-322 -219,-529 0,-207 84,-393 219,-529 135,-135 322,-219 529,-219 z m 240,508 c -62,-62 -147,-100 -240,-100 -94,0 -179,38 -240,100 -62,62 -100,147 -100,240 0,94 38,179 100,240 62,62 147,100 240,100 94,0 179,-38 240,-100 62,-62 100,-147 100,-240 0,-94 -38,-179 -100,-240 z m 5624,-2937 c 146,-146 337,-219 529,-219 191,0 383,73 529,219 146,146 219,337 219,529 0,191 -73,383 -219,529 -146,146 -337,219 -529,219 -191,0 -383,-73 -529,-219 -146,-146 -219,-337 -219,-529 0,-191 73,-383 219,-529 z m 529,189 c -87,0 -174,33 -240,100 -66,66 -100,153 -100,240 0,87 33,174 100,240 66,66 153,100 240,100 87,0 174,-33 240,-100 66,-66 100,-153 100,-240 0,-87 -33,-174 -100,-240 -66,-66 -153,-100 -240,-100 z m 1900,-6053 c 0,-207 84,-393 219,-529 135,-135 322,-219 529,-219 207,0 393,84 529,219 135,135 219,322 219,529 0,207 -84,393 -219,529 -135,135 -322,219 -529,219 -207,0 -393,-84 -529,-219 -135,-135 -219,-322 -219,-529 z m 508,-240 c -62,62 -100,147 -100,240 0,94 38,179 100,240 62,62 147,100 240,100 94,0 179,-38 240,-100 62,-62 100,-147 100,-240 0,-94 -38,-179 -100,-240 -62,-62 -147,-100 -240,-100 -94,0 -179,38 -240,100 z m -2937,-5624 c -146,-146 -219,-337 -219,-529 0,-191 73,-383 219,-529 146,-146 337,-219 529,-219 191,0 383,73 529,219 146,146 219,337 219,529 0,191 -73,383 -219,529 -146,146 -337,219 -529,219 -191,0 -383,-73 -529,-219 z m 189,-529 c 0,87 33,174 100,240 66,66 153,100 240,100 87,0 174,-33 240,-100 66,-66 100,-153 100,-240 0,-87 -33,-174 -100,-240 -66,-66 -153,-100 -240,-100 -87,0 -174,33 -240,100 -66,66 -100,153 -100,240 z m -6053,-3396 c 207,0 393,84 529,219 135,135 219,322 219,529 0,207 -84,393 -219,529 -135,135 -322,219 -529,219 -207,0 -393,-84 -529,-219 -135,-135 -219,-322 -219,-529 0,-207 84,-393 219,-529 135,-135 322,-219 529,-219 z m 240,507 c -62,-62 -147,-100 -240,-100 -94,0 -179,38 -240,100 -62,62 -100,147 -100,240 0,94 38,179 100,240 62,62 147,100 240,100 94,0 179,-38 240,-100 62,-62 100,-147 100,-240 0,-94 -38,-179 -100,-240 z"
         id="path981"
         style="fill:#1e88e5;fill-opacity:1;stroke:#000000;stroke-width:20;stroke-linejoin:round;filter:url(#filter1884)"
         inkscape:connector-curvature="0" /><text
         xml:space="preserve"
         style="font-style:normal;font-weight:normal;font-size:40px;line-height:1.25;font-family:sans-serif;letter-spacing:0px;word-spacing:0px;fill:#1a77ca;fill-opacity:1;stroke:none"
         x="28078.025"
         y="31192.639"
         id="text1904"><tspan
           sodipodi:role="line"
           id="tspan1902"
           x="28078.025"
           y="31192.639"
           style="font-style:normal;font-variant:normal;font-weight:normal;font-stretch:normal;font-size:4000px;line-height:16.25;font-family:'Linux Libertine Initials';-inkscape-font-specification:'Linux Libertine Initials';fill:#1a77ca;fill-opacity:1"
           rotate="0 0">H</tspan></text>
</g></g></svg>